<svg width="55" height="55" viewBox="0 0 55 55" fill="none" xmlns="http://www.w3.org/2000/svg">
<path d="M21.793 0.123326C20.7509 0.130592 19.7221 0.278717 18.7235 0.577193C17.7328 0.873678 16.8202 1.3034 15.9919 1.85067C16.8968 4.15012 19.2069 7.06903 21.8829 9.56079C24.6769 12.1626 27.8805 14.3731 29.9495 15.37L29.9737 15.3817L29.9975 15.3938C31.8988 16.3706 33.2448 17.9078 34.0218 19.6036C34.5221 20.6956 34.8136 21.8393 34.9835 23.0021C36.5069 21.8138 38.1129 20.8622 39.7455 20.1716C39.6213 18.0259 39.1493 15.7759 38.2896 13.523C36.4866 8.79801 33.3373 4.99411 29.7707 2.67426C27.2072 1.00692 24.4563 0.104811 21.793 0.123326ZM12.8389 5.08094C12.2398 6.01071 11.7484 7.04735 11.375 8.17317C10.1282 11.9318 10.2293 16.6468 12.0325 21.372C13.1237 24.2317 14.7087 26.7532 16.5805 28.8134C18.4246 29.3651 20.2485 30.2175 21.9618 31.3742C23.2855 32.268 24.4651 33.291 25.4873 34.4037C25.821 34.4848 26.1547 34.5539 26.4881 34.6083C27.1233 32.9515 27.9477 31.3032 28.9636 29.704C29.5783 28.7357 30.2518 27.8059 30.9804 26.92C30.9888 26.3116 30.9839 25.722 30.955 25.1591C30.8764 23.6369 30.6327 22.3349 30.1862 21.3606C29.74 20.3863 29.1585 19.7057 28.0698 19.1465L28.1178 19.1702C25.4368 17.8782 22.0889 15.5172 19.0077 12.6481C16.5585 10.3676 14.2864 7.81329 12.8389 5.08094ZM45.6224 20.9862C44.0395 20.9991 42.365 21.3667 40.671 22.07C37.0569 23.5702 33.4281 26.611 30.744 30.8352C29.3709 32.9964 28.3842 35.2497 27.7707 37.459C30.1789 41.4994 30.7704 46.1405 29.0355 50.0382C29.316 50.4388 29.629 50.8156 29.9714 51.1647C32.5078 48.9763 35.4309 47.1636 37.5084 45.302C38.644 44.2848 39.5038 43.2776 39.9816 42.3184C40.4593 41.359 40.6237 40.4789 40.3753 39.2806L40.3608 39.2109L40.3512 39.1405C39.4075 32.3092 41.0631 28.2946 43.4759 25.8386C45.416 23.864 47.3473 22.824 48.6796 21.4509C47.717 21.1309 46.6907 20.9774 45.6224 20.9862ZM52.2723 23.7932C50.3235 26.2155 47.9208 27.3343 46.4852 28.7955C44.8357 30.4745 43.697 32.4957 44.5264 38.5342C44.9258 40.5873 44.5748 42.5591 43.7579 44.1993C42.9262 45.8689 41.6825 47.2265 40.3237 48.4441C38.2597 50.2935 35.8788 51.8772 33.8871 53.4222C36.1459 54.0089 38.7176 53.725 41.3361 52.6379C44.9502 51.1379 48.5793 48.0968 51.2631 43.8726C53.9473 39.6482 55.1584 35.071 54.9812 31.1621C54.8457 28.1726 53.9224 25.6111 52.2724 23.7933L52.2723 23.7932ZM44.5264 38.5342C44.5194 38.4973 44.5138 38.4606 44.506 38.4237L44.5304 38.5635C44.5293 38.5537 44.528 38.544 44.5266 38.5342H44.5264ZM11.6878 30.1642C9.53355 30.1448 7.50422 30.6171 5.79621 31.5479C5.80793 31.5482 5.81812 31.549 5.82984 31.5494C6.84117 31.5851 8.11078 31.4658 9.57257 31.6654C11.0343 31.8651 12.7466 32.5288 14.0437 33.9966C15.341 35.4643 16.2305 37.545 16.85 40.5333L16.8647 40.6029L16.8743 40.6735C17.1618 42.7585 18.4898 43.9647 20.7923 45.094C22.7569 46.0577 25.2791 46.7458 27.6732 47.4463C28.7455 42.6416 26.2014 36.7816 20.7814 33.1225C17.859 31.1495 14.6556 30.1911 11.688 30.1642H11.6878ZM2.18648 35.0213C-0.774848 40.1225 1.60007 47.6078 8.05828 51.968C14.4128 56.2582 22.0957 55.7504 25.7934 51.3C23.633 50.6843 21.1837 49.9852 18.9344 48.882C16.0341 47.4593 13.2696 45.0687 12.7118 41.356C12.1806 38.813 11.4708 37.456 10.8825 36.7904C10.2919 36.1216 9.83132 35.9589 9.00164 35.8458C8.17195 35.7324 7.03171 35.8134 5.68136 35.7658C4.62902 35.7288 3.39433 35.5777 2.18648 35.0214V35.0213ZM12.7119 41.3559C12.7145 41.3676 12.7171 41.3784 12.7195 41.3902L12.6953 41.25C12.7002 41.2857 12.7066 41.3204 12.712 41.356L12.7119 41.3559Z" fill="#EE8542"/>
</svg>
