<svg width="51" height="55" viewBox="0 0 51 55" fill="none" xmlns="http://www.w3.org/2000/svg">
<path d="M11.8755 0.75C11.8755 0.75 6.02906 5.13281 6.25055 8.25C6.43851 10.8949 11.4507 11.2576 11.8755 13.875C12.0994 15.2545 10.0005 17.625 10.0005 17.625C10.0005 17.625 15.6255 14.6516 15.6255 12C15.6255 9.3484 10.6099 8.9557 10.0005 6.375C9.54644 4.45148 11.8755 0.75 11.8755 0.75ZM21.2505 0.75C21.2505 0.75 15.4041 5.13281 15.6255 8.25C15.8135 10.8949 20.8257 11.2576 21.2505 13.875C21.4744 15.2545 19.3755 17.625 19.3755 17.625C19.3755 17.625 25.0005 14.6516 25.0005 12C25.0005 9.3484 19.9849 8.9557 19.3755 6.375C18.9214 4.45148 21.2505 0.75 21.2505 0.75ZM30.6255 0.75C30.6255 0.75 24.7791 5.13281 25.0005 8.25C25.1885 10.8949 30.2007 11.2576 30.6255 13.875C30.8494 15.2545 28.7505 17.625 28.7505 17.625C28.7505 17.625 34.3755 14.6516 34.3755 12C34.3755 9.3484 29.3599 8.9557 28.7505 6.375C28.2964 4.45148 30.6255 0.75 30.6255 0.75ZM3.58957 20.5547C3.75715 28.0486 5.80945 41.5819 12.3443 48.4453H30.1568C36.6916 41.5819 38.7441 28.0486 38.9115 20.5547H3.58957ZM41.0425 20.6068C41.0207 21.6793 40.9661 22.8629 40.87 24.1291C44.1387 24.558 46.6802 27.3682 46.6802 30.75C46.6802 34.4266 43.6772 37.4297 40.0005 37.4297C39.4971 37.4293 38.9952 37.3717 38.5048 37.258C38.1635 38.3854 37.781 39.5039 37.3516 40.599C38.2157 40.8295 39.1062 40.9459 40.0005 40.9453C45.6437 40.9453 50.1959 36.3932 50.1959 30.75C50.1959 25.4586 46.1937 21.1266 41.0425 20.6068ZM0.0118359 50.5547C0.188437 51.1632 0.463476 51.8672 0.826875 52.473C1.1359 52.988 1.49367 53.4348 1.81453 53.7129C2.13516 53.9906 2.38336 54.0703 2.50055 54.0703H40.0005C40.1177 54.0703 40.3659 53.9909 40.6867 53.7129C41.0075 53.4348 41.3652 52.988 41.6743 52.473C42.0376 51.8672 42.3128 51.1632 42.4894 50.5547H0.0118359Z" fill="#EE8542"/>
</svg>
