<svg width="42" height="60" viewBox="0 0 42 60" fill="none" xmlns="http://www.w3.org/2000/svg">
<path d="M41.5387 16.0374L41.2087 14.3724C40.9112 12.8774 40.2387 11.4649 38.7062 10.9249C38.2137 10.7524 37.6562 10.6799 37.2812 10.3224C36.9012 9.9649 36.7912 9.4074 36.7037 8.8924C36.5412 7.9474 36.3912 7.0024 36.2237 6.0599C36.0812 5.2474 35.9687 4.3349 35.5987 3.5924C35.1112 2.5924 34.1062 2.0074 33.1087 1.6224C32.5967 1.43097 32.0742 1.26904 31.5437 1.1374C29.0437 0.479902 26.4187 0.237402 23.8512 0.0974022C20.7681 -0.0721132 17.6768 -0.0203137 14.6012 0.252402C12.3137 0.459902 9.90117 0.712402 7.72617 1.5024C6.93117 1.7924 6.11117 2.1424 5.50617 2.7549C4.76367 3.5099 4.52367 4.6799 5.06367 5.6199C5.44867 6.2874 6.10117 6.7599 6.79367 7.0699C7.69367 7.4749 8.63617 7.7799 9.60117 7.9849C12.2887 8.5799 15.0737 8.8124 17.8187 8.9099C20.8637 9.0349 23.9112 8.9349 26.9437 8.6149C27.6912 8.5324 28.4387 8.4324 29.1837 8.3174C30.0637 8.1824 30.6287 7.0349 30.3687 6.2324C30.0587 5.2749 29.2262 4.9049 28.2837 5.0499C27.1187 5.2349 25.8837 5.3199 24.8287 5.4149C21.8862 5.6149 18.9337 5.6199 15.9887 5.4299C15.0223 5.36596 14.0578 5.27676 13.0962 5.1624C12.8812 5.1374 12.6462 5.0999 12.4512 5.0724C11.8437 4.9824 11.2412 4.8724 10.6412 4.7474C10.3637 4.6799 10.3637 4.2849 10.6412 4.2174H10.6537C11.3462 4.0674 12.0462 3.9474 12.7487 3.8499H12.7537C13.0812 3.8274 13.4112 3.7699 13.7387 3.7299C16.5835 3.43464 19.4452 3.33441 22.3037 3.4299C23.9887 3.4774 25.6712 3.5974 27.3462 3.7899L27.9162 3.8674C28.5837 3.9674 29.2487 4.0874 29.9112 4.2299C30.8912 4.4424 32.1487 4.5124 32.5862 5.5849C32.7237 5.9274 32.7862 6.3049 32.8637 6.6624L33.6612 10.3724C33.6781 10.452 33.6784 10.5341 33.6622 10.6138C33.646 10.6935 33.6135 10.769 33.5669 10.8356C33.5202 10.9022 33.4603 10.9585 33.3909 11.001C33.3216 11.0434 33.2442 11.0711 33.1637 11.0824H33.1562C33.0637 11.0974 32.9687 11.1074 32.8762 11.1199C28.9437 11.6216 24.983 11.868 21.0187 11.8574C17.0907 11.8534 13.1669 11.5995 9.27117 11.0974C8.92117 11.0549 8.53867 10.9924 8.22867 10.9474C7.41367 10.8274 6.60617 10.6774 5.79617 10.5449C4.81367 10.3824 3.87617 10.4649 2.98867 10.9474C2.26367 11.3474 1.67117 11.9574 1.30117 12.6999C0.916166 13.4899 0.803667 14.3499 0.633667 15.1999C0.461167 16.0499 0.193667 16.9674 0.296167 17.8399C0.513667 19.7224 1.82867 21.2524 3.72117 21.5949C13.0798 23.2651 22.6299 23.5816 32.0787 22.5349C32.2582 22.5145 32.44 22.5346 32.6107 22.5938C32.7814 22.6529 32.9366 22.7497 33.065 22.8768C33.1933 23.004 33.2915 23.1583 33.3523 23.3285C33.4131 23.4986 33.4349 23.6802 33.4162 23.8599L33.2387 25.6024L30.6937 50.3699C30.5912 51.3949 30.5762 52.4499 30.3812 53.4624C30.0762 55.0549 28.9987 56.0324 27.4262 56.3899C25.9837 56.7174 24.5137 56.8899 23.0362 56.9024C21.3962 56.9124 19.7612 56.8399 18.1212 56.8474C16.3737 56.8574 14.2312 56.6974 12.8837 55.3974C11.6962 54.2524 11.5337 52.4624 11.3712 50.9149L9.54367 33.3824L8.73867 25.6474C8.64617 24.7699 8.02367 23.9099 7.04367 23.9524C6.20367 23.9899 5.24867 24.7024 5.34867 25.6499L5.91867 31.1124L8.29117 53.8924C8.65867 57.2524 11.2262 59.0624 14.4062 59.5724C16.2612 59.8724 18.1637 59.9324 20.0487 59.9624C22.4637 60.0024 24.9037 60.0949 27.2787 59.6574C30.7987 59.0124 33.4412 56.6624 33.8187 53.0149C34.6687 44.6849 35.5262 36.3574 36.3787 28.0274L36.9162 22.8099C36.9426 22.5512 37.0518 22.3079 37.2274 22.116C37.403 21.9242 37.6358 21.7941 37.8912 21.7449C38.8962 21.5499 39.8587 21.2149 40.5762 20.4499C41.7137 19.2299 41.9412 17.6424 41.5387 16.0374ZM37.8437 17.9674C37.4812 18.3099 36.9362 18.4699 36.3987 18.5499C30.3587 19.4474 24.2337 19.8999 18.1287 19.6999C13.7587 19.5499 9.43617 19.0649 5.11117 18.4549C4.68617 18.3949 4.22867 18.3174 3.93617 18.0049C3.38617 17.4149 3.65867 16.2299 3.80117 15.5174C3.93117 14.8674 4.18117 13.9949 4.95867 13.9024C6.16867 13.7599 7.57367 14.2724 8.77367 14.4524C10.2162 14.6724 11.6637 14.8499 13.1162 14.9824C19.3162 15.5474 25.6212 15.4574 31.7962 14.6324C32.9212 14.4824 34.0437 14.3074 35.1587 14.1074C36.1562 13.9274 37.2587 13.5924 37.8587 14.6224C38.2737 15.3249 38.3287 16.2649 38.2637 17.0574C38.244 17.4035 38.0928 17.729 37.8412 17.9674H37.8437ZM22.4462 27.7174C20.2912 28.6424 17.8462 29.6874 14.6737 29.6874C13.3477 29.6842 12.0282 29.5017 10.7512 29.1449L12.9437 51.6549C13.1062 53.6049 14.7362 55.1049 16.6937 55.1049C16.6937 55.1049 19.8012 55.2674 20.8387 55.2674C21.9562 55.2674 25.3037 55.1049 25.3037 55.1049C27.2612 55.1049 28.8887 53.6049 29.0512 51.6549L31.4012 26.7799C30.341 26.3965 29.2235 26.1953 28.0962 26.1849C26.0312 26.1849 24.3687 26.8949 22.4462 27.7174Z" fill="#EE8542"/>
</svg>
