<svg width="13" height="16" viewBox="0 0 13 16" fill="none" xmlns="http://www.w3.org/2000/svg">
<path d="M3.82259 0.5C1.72427 0.5 0 2.48682 0 4.91068V11.0893C0 13.5105 1.72191 15.5 3.82259 15.5H9.17741C11.2757 15.5 13 13.5132 13 11.0893V4.91136C13 2.48955 11.2781 0.5 9.17741 0.5H3.82259ZM3.82259 1.86364H9.17741C9.52433 1.8631 9.86794 1.94154 10.1885 2.09448C10.5091 2.24742 10.8004 2.47184 11.0458 2.75489C11.2911 3.03795 11.4856 3.37406 11.6181 3.74399C11.7507 4.11392 11.8186 4.51039 11.8182 4.91068V11.0893C11.8186 11.4896 11.7507 11.8861 11.6181 12.256C11.4856 12.6259 11.2911 12.9621 11.0458 13.2451C10.8004 13.5282 10.5091 13.7526 10.1885 13.9055C9.86794 14.0585 9.52433 14.1369 9.17741 14.1364H3.82318C3.47621 14.137 3.13254 14.0586 2.81187 13.9057C2.4912 13.7528 2.19982 13.5284 1.95445 13.2453C1.70908 12.9623 1.51452 12.6261 1.38194 12.2562C1.24936 11.8862 1.18135 11.4897 1.18182 11.0893V4.91136C1.18127 4.51101 1.2492 4.11447 1.38171 3.74446C1.51423 3.37446 1.70871 3.03826 1.95403 2.75514C2.19935 2.47201 2.49068 2.24753 2.81132 2.09455C3.13196 1.94157 3.47562 1.8631 3.82259 1.86364V1.86364ZM9.98991 3.35545C9.91952 3.35509 9.84976 3.37083 9.78466 3.40174C9.71957 3.43266 9.66043 3.47814 9.61065 3.53558C9.56088 3.59301 9.52145 3.66125 9.49466 3.73636C9.46787 3.81147 9.45423 3.89196 9.45455 3.97318C9.45455 4.31682 9.69209 4.59091 9.98991 4.59091C10.0604 4.59136 10.1302 4.5757 10.1953 4.54482C10.2605 4.51394 10.3197 4.46847 10.3695 4.41103C10.4194 4.35359 10.4589 4.28531 10.4857 4.21016C10.5125 4.13501 10.5262 4.05446 10.5259 3.97318C10.5262 3.8919 10.5125 3.81136 10.4857 3.7362C10.4589 3.66105 10.4194 3.59278 10.3695 3.53533C10.3197 3.47789 10.2605 3.43242 10.1953 3.40154C10.1302 3.37067 10.0604 3.355 9.98991 3.35545V3.35545ZM6.5 3.90909C4.55 3.90909 2.95455 5.75 2.95455 8C2.95455 10.25 4.55 12.0909 6.5 12.0909C8.45 12.0909 10.0455 10.25 10.0455 8C10.0455 5.75 8.45 3.90909 6.5 3.90909ZM6.5 5.27273C7.81359 5.27273 8.86364 6.48432 8.86364 8C8.86364 9.51568 7.81359 10.7273 6.5 10.7273C5.18641 10.7273 4.13636 9.51568 4.13636 8C4.13636 6.48432 5.18641 5.27273 6.5 5.27273Z" fill="#EE8542"/>
</svg>
