<svg width="13" height="16" viewBox="0 0 13 16" fill="none" xmlns="http://www.w3.org/2000/svg">
<path d="M1.63614 0.500001C1.42139 0.499821 1.20871 0.546243 1.01025 0.636612C0.811796 0.726982 0.631447 0.85953 0.479509 1.02668C0.327571 1.19384 0.207021 1.39232 0.124746 1.6108C0.0424703 1.82928 8.12526e-05 2.06347 0 2.3C0 3.29545 0.732334 4.12046 1.63429 4.12046C2.53748 4.12046 3.27043 3.29546 3.27043 2.30136C3.27059 2.06487 3.22844 1.83066 3.14638 1.61212C3.06432 1.39357 2.94397 1.19498 2.7922 1.02769C2.64042 0.8604 2.4602 0.727691 2.26184 0.637148C2.06348 0.546604 1.85086 0.5 1.63614 0.500001V0.500001ZM9.61691 5.27273C8.24324 5.27273 7.45767 6.06364 7.08005 6.85046H7.04043V5.48477H4.33333V15.5H7.15433V10.5425C7.15433 9.23614 7.24348 7.97341 8.71124 7.97341C10.158 7.97341 10.179 9.46318 10.179 10.625V15.5H13V9.99909C13 7.30727 12.4744 5.27273 9.61691 5.27273ZM0.224714 5.48409V15.5H3.04757V5.48409H0.224714V5.48409Z" fill="#EE8542"/>
</svg>
