<svg width="18" height="18" viewBox="0 0 18 18" fill="none" xmlns="http://www.w3.org/2000/svg">
<path d="M10.4679 0.46875C6.85069 0.46875 3.90544 3.414 3.90544 7.03125C3.90544 8.60297 4.45669 10.0434 5.382 11.1742L0.152344 16.4025L1.09669 17.3475L6.32569 12.1178C7.49351 13.0753 8.95782 13.597 10.4679 13.5938C14.0852 13.5938 17.0304 10.6485 17.0304 7.03125C17.0304 3.414 14.0852 0.46875 10.4679 0.46875ZM10.4679 1.78125C13.3751 1.78125 15.7179 4.12406 15.7179 7.03125C15.7179 9.93844 13.3751 12.2812 10.4679 12.2812C7.56075 12.2812 5.21794 9.93844 5.21794 7.03125C5.21794 4.12406 7.56075 1.78125 10.4679 1.78125Z" fill="#4F4844"/>
</svg>
