<svg width="56" height="51" viewBox="0 0 56 51" fill="none" xmlns="http://www.w3.org/2000/svg">
<path d="M3.81953 0.347656L10.668 12.3793H36.1562V4.17031L3.81953 0.347656ZM7.08906 14.4887V16.7855H37.2109C42.8359 16.7855 46.8437 20.2191 49.3047 24.3207C51.5312 28.0121 52.6094 32.2543 52.8086 35.5238H55.1641C54.918 31.6801 53.3828 26.5941 50.8047 22.4223C47.9805 17.8637 44.0312 14.4887 39.3203 14.4887H7.08906ZM8.64648 18.8949C8.27734 19.4457 7.5918 20.6645 6.90391 22.2465C6.04375 24.227 5.07578 26.7934 4.17344 29.6176C2.36992 35.2777 0.835938 41.9809 0.835938 46.9496C0.835938 47.6527 1.21914 48.4848 1.83672 49.1176C2.4543 49.7387 3.26641 50.1254 3.94492 50.1254H41.4297C42.0859 50.1254 42.9062 49.7387 43.5273 49.1176C44.1484 48.4848 44.5352 47.6527 44.5352 46.9496C44.5352 41.9809 43 35.2777 41.1836 29.6176C40.2812 26.7934 39.3086 24.227 38.4414 22.2465C37.75 20.6645 37.0586 19.4457 36.6836 18.8949H8.64648ZM5.61836 34.5043H39.6719C40.5508 37.9145 41.1719 41.5004 41.1719 44.3832C41.1719 46.0004 39.4609 47.6996 37.75 47.6996H7.49687C5.82227 47.6996 4.13008 46.0004 4.13008 44.3832C4.13008 41.5004 4.74414 37.9145 5.61836 34.5043Z" fill="#DDDAD5"/>
</svg>
