<svg width="14" height="12" viewBox="0 0 14 12" fill="none" xmlns="http://www.w3.org/2000/svg">
<path d="M14 1.4235C13.4758 1.6682 12.9197 1.82847 12.3503 1.89897C12.9498 1.52049 13.3984 0.92527 13.6127 0.224072C13.0489 0.576358 12.4325 0.825112 11.7897 0.959721C11.396 0.515842 10.8847 0.207155 10.3223 0.0737995C9.75991 -0.0595562 9.17249 -0.0114108 8.63642 0.211975C8.10034 0.43536 7.6404 0.823651 7.31641 1.32636C6.99242 1.82907 6.81936 2.42293 6.81975 3.03073C6.81975 3.26877 6.84483 3.49943 6.89558 3.72025C5.75313 3.66096 4.63535 3.34849 3.61508 2.80322C2.59482 2.25795 1.69496 1.49211 0.974167 0.555606C0.71807 1.01785 0.583744 1.54385 0.585083 2.07919C0.585083 3.12915 1.09083 4.05671 1.86317 4.59983C1.40698 4.58457 0.960901 4.45422 0.562333 4.21971V4.25846C0.561939 4.95792 0.79125 5.63595 1.2113 6.17732C1.63135 6.71869 2.21621 7.08999 2.8665 7.22812C2.44362 7.3504 1.99974 7.3685 1.56917 7.28102C1.75257 7.88276 2.10965 8.40908 2.59052 8.78644C3.07138 9.1638 3.65202 9.37337 4.25133 9.38586C3.65554 9.87896 2.97338 10.2433 2.24388 10.4581C1.51438 10.6729 0.751874 10.7339 0 10.6376C1.31281 11.5284 2.84127 12.0014 4.40242 12C9.68625 12 12.5761 7.38435 12.5761 3.38134C12.5761 3.25217 12.5714 3.11931 12.5667 2.98952C13.1282 2.56084 13.6134 2.03088 14 1.42412V1.4235Z" fill="#EE8542"/>
</svg>
