<svg width="17" height="12" viewBox="0 0 17 12" fill="none" xmlns="http://www.w3.org/2000/svg">
<path d="M16.6413 1.87347C16.5446 1.51105 16.3552 1.1806 16.092 0.915205C15.8288 0.649811 15.5012 0.458778 15.1418 0.361225C13.8183 1.09478e-07 8.5 0 8.5 0C8.5 0 3.18171 1.09478e-07 1.85821 0.361225C1.49883 0.458778 1.17115 0.649811 0.907986 0.915205C0.644818 1.1806 0.455387 1.51105 0.358652 1.87347C0.111525 3.23465 -0.00839906 4.61622 0.000456811 6C-0.00839906 7.38378 0.111525 8.76535 0.358652 10.1265C0.455387 10.489 0.644818 10.8194 0.907986 11.0848C1.17115 11.3502 1.49883 11.5412 1.85821 11.6388C3.18171 12 8.5 12 8.5 12C8.5 12 13.8183 12 15.1418 11.6388C15.5012 11.5412 15.8288 11.3502 16.092 11.0848C16.3552 10.8194 16.5446 10.489 16.6413 10.1265C16.8885 8.76535 17.0084 7.38378 16.9995 6C17.0084 4.61622 16.8885 3.23465 16.6413 1.87347V1.87347ZM6.80009 8.57143V3.42857L11.2138 6L6.80009 8.57143Z" fill="#EE8542"/>
</svg>
